<svg width="55" height="46" viewBox="0 0 55 46" fill="none" xmlns="http://www.w3.org/2000/svg">
<path d="M34.0491 44.5707C33.0887 44.693 32.182 43.896 32.182 42.7524V41.1274C32.182 40.0596 33.081 39.0716 34.3519 38.8315C40.9346 37.5877 46.1019 32.5365 47.3939 26.0532C47.868 23.6737 45.8464 21.8764 43.7054 21.8764H34.182C33.0777 21.8762 32.1821 20.9807 32.182 19.8764V3.00043C32.182 1.89602 33.0776 1.00068 34.182 1.00043H51.4671C52.5717 1.00043 53.4671 1.89586 53.4671 3.00043V22.8764C53.467 33.9374 44.9776 43.1771 34.0491 44.5707ZM2.86751 44.5707C1.90692 44.6932 1.00032 43.8961 1.00032 42.7524V41.1274C1.00032 40.0596 1.89835 39.0716 3.16927 38.8315C9.75205 37.5877 14.9193 32.5366 16.2113 26.0532C16.6854 23.6736 14.6638 21.8764 12.5228 21.8764H3.00032C1.89582 21.8764 1.00044 20.9809 1.00032 19.8764V3.00043C1.00032 1.89586 1.89575 1.00043 3.00032 1.00043H20.2845C21.3891 1.00043 22.2845 1.89586 22.2845 3.00043V22.8764C22.2844 33.9373 13.7957 43.1769 2.86751 44.5707Z" stroke="#0053DC" stroke-opacity="0.5" stroke-width="2"/>
</svg>
